<?xml version="1.0" encoding="iso-8859-1"?>
<!-- Generator: Adobe Illustrator 18.0.0, SVG Export Plug-In . SVG Version: 6.00 Build 0)  -->
<!DOCTYPE svg PUBLIC "-//W3C//DTD SVG 1.1//EN" "http://www.w3.org/Graphics/SVG/1.1/DTD/svg11.dtd">
<svg version="1.1" id="Capa_1" xmlns="http://www.w3.org/2000/svg" xmlns:xlink="http://www.w3.org/1999/xlink" x="0px" y="0px"
	 viewBox="0 0 396.21 396.21" style="enable-background:new 0 0 396.21 396.21;" xml:space="preserve" fill="#f2f2f2">
<g>
	<path d="M375.925,276.23c-0.911-2.865-3.547-4.791-6.557-4.791c-1.48,0-2.895,0.469-4.089,1.354l-21.416,15.89
		c-4.819,3.577-8.326,8.74-9.873,14.539l-7.503,28.136c-1.918,7.195,1.833,14.748,8.725,17.566l3.925,1.605
		c1.797,0.734,3.686,1.107,5.617,1.107c5.616,0,10.688-3.108,13.235-8.113l17.241-33.867c4.496-8.832,5.317-18.897,2.313-28.342
		L375.925,276.23z M368.102,306.028l-17.241,33.867c-1.176,2.308-3.516,3.742-6.106,3.742c-0.887,0-1.758-0.172-2.588-0.512
		l-3.925-1.605c-3.179-1.3-4.908-4.783-4.023-8.102l7.503-28.135c1.082-4.059,3.536-7.673,6.91-10.176l20.15-14.949l1.14,3.582
		C372.284,291.168,371.637,299.083,368.102,306.028z"/>
	<path d="M321.558,257.12c-2.672-16.517,3.949-33.059,17.278-43.171l20.13-15.27c10.044-7.62,16.855-18.641,19.179-31.033
		l1.014-5.408c1.196-6.381-0.496-12.904-4.642-17.899c-4.146-4.995-10.245-7.859-16.736-7.859c-9.542,0-21.853-6.85-26.882-14.958
		l-29.111-46.926C286.065,49.252,262.116,29.3,234.289,18.39c-1.419-0.555-2.908-0.836-4.426-0.836
		c-4.263,0-8.266,2.275-10.448,5.938l-3.395,5.699c-2.692,4.519-7.634,7.326-12.897,7.327c-2.06,0-4.069-0.42-5.973-1.247
		l-10.337-4.494c-4.02-1.748-7.065-5.153-8.355-9.343c-1.29-4.19-0.688-8.719,1.653-12.426c0.96-1.519,1.076-3.398,0.313-5.027
		c-0.762-1.624-2.276-2.733-4.054-2.966c-5.952-0.778-11.938-1.112-17.852-0.991l-35.143,0.718
		C95.334,1.313,70.017,16.035,55.651,40.121L23.165,94.582c-9.115,15.281-8.591,34.697,1.335,49.465l15.983,23.78
		c6.192,9.213,16.513,14.713,27.608,14.713c1.416,0,2.848-0.092,4.255-0.272l51.29-6.603c6.941-0.896,13.911,1.707,18.58,6.895
		c3.832,4.256,5.74,9.667,5.436,15.343c-1.141,1.647-1.686,3.604-1.518,5.563c0.213,2.49,1.563,4.784,3.7,6.292l10.182,7.188
		c11.845,8.361,16.821,23.774,12.102,37.483l-3.368,9.783c-5.875,17.066-5.579,35.757,0.832,52.629l23.074,60.723
		c3.908,10.284,13.534,17.237,24.524,17.714l20.845,0.906c0.4,0.018,0.799,0.026,1.197,0.026c6.873,0,13.455-2.551,18.536-7.182
		l17.277-15.754c6.892-6.284,11.187-14.857,12.094-24.142l1.147-11.764c0.894-9.166,5.873-17.244,13.659-22.162l5.313-3.355
		c12.766-8.063,19.456-22.902,17.044-37.807L321.558,257.12z M123.538,8.74l35.143-0.718c4.222-0.087,8.476,0.076,12.744,0.483
		c-1.929,4.836-2.172,10.221-0.613,15.283c1.978,6.424,6.648,11.645,12.812,14.324l10.337,4.494
		c2.916,1.269,5.998,1.911,9.163,1.911c8.066-0.001,15.642-4.305,19.77-11.233l3.396-5.699c0.746-1.254,2.116-2.032,3.575-2.032
		c0.517,0,1.025,0.097,1.567,0.308c26.169,10.26,48.741,29.065,63.559,52.95l12.147,19.581l-38.85,69.625l-26.725-43.829
		l1.426-24.25c0.087-1.479-0.65-2.885-1.917-3.653l-41.997-25.499c-1.79-1.086-4.115-0.608-5.331,1.094l-5.441,7.617l-13.389-7.303
		c-1.251-0.683-2.771-0.646-3.991,0.093l-39.575,24.027L64.354,41.319C77.551,21.345,99.423,9.232,123.538,8.74z M126.421,167.486
		c-1.262,0-2.542,0.082-3.806,0.244l-51.29,6.602c-1.069,0.138-2.157,0.207-3.233,0.207c-8.427,0-16.266-4.178-20.969-11.176
		l-15.983-23.78c-8.208-12.212-8.642-28.268-1.104-40.904l30.104-50.469l68.321,56.086c1.311,1.076,3.159,1.21,4.614,0.327
		l40.028-24.304l12.334,6.729l-1.4,57.426l-34.843,33.946c-0.332-0.413-0.676-0.818-1.032-1.213
		C142.601,171.029,134.676,167.486,126.421,167.486z M176.316,266.815l3.368-9.783c5.87-17.052-0.32-36.224-15.053-46.622
		l-10.183-7.188c-0.203-0.144-0.331-0.307-0.342-0.439c-0.012-0.132,0.087-0.314,0.263-0.49c0.647-0.649,1.054-1.499,1.15-2.41
		c0.52-4.944-0.243-9.89-2.123-14.388l37.391-36.428c0.749-0.73,1.183-1.723,1.208-2.768l1.47-60.268l4.629-6.48l36.765,22.322
		l-1.357,23.096c-0.048,0.813,0.154,1.621,0.578,2.316l36.727,60.23l-12.821,78.349l-31.84,6.922
		c-1.834,0.399-3.145,2.02-3.15,3.896l-0.07,22.608l-49.783-0.974C171.775,287.777,172.819,276.976,176.316,266.815z
		 M269.647,367.362l-17.276,15.754c-3.813,3.475-8.801,5.31-13.996,5.075l-20.845-0.906c-7.795-0.339-14.622-5.27-17.394-12.564
		l-23.074-60.723c-0.953-2.509-1.742-5.065-2.393-7.65l67.366,1.318l38.073,31.058l-0.94,9.63
		C278.455,355.665,275.074,362.415,269.647,367.362z M302.98,305.088l-5.314,3.355c-7.872,4.972-13.474,12.491-16.009,21.221
		l-35.635-29.07c-0.693-0.565-1.556-0.882-2.45-0.899l-12.647-0.247l0.06-19.526l31.357-6.817c1.604-0.349,2.833-1.642,3.098-3.263
		l13.5-82.496c0.154-0.943-0.034-1.911-0.532-2.727l-5.338-8.754l38.89-69.695l12.141,19.57
		c6.52,10.509,21.314,18.741,33.681,18.741c4.103,0,7.96,1.811,10.581,4.969c2.62,3.157,3.689,7.282,2.934,11.316l-1.014,5.408
		c-1.956,10.436-7.692,19.717-16.15,26.134l-20.13,15.27c-15.692,11.904-23.486,31.378-20.34,50.821l2.737,16.925
		C318.297,287.056,313.03,298.74,302.98,305.088z"/>
</g>
<g>
</g>
<g>
</g>
<g>
</g>
<g>
</g>
<g>
</g>
<g>
</g>
<g>
</g>
<g>
</g>
<g>
</g>
<g>
</g>
<g>
</g>
<g>
</g>
<g>
</g>
<g>
</g>
<g>
</g>
</svg>
