<svg height="511pt" viewBox="0 -29 511.99755 511" width="511pt" fill="#f2f2f2" xmlns="http://www.w3.org/2000/svg"><path d="m504.496094 76.546875c-4.140625 0-7.5 3.359375-7.5 7.5l-.011719 258.226563c-8.28125-4.476563-20.644531-10.820313-29.539063-13.738282-3.71875-1.21875-13.597656-4.457031-17.988281 2.917969-3.214843 5.40625-3.679687 14.125-1.179687 22.214844 5.457031 17.675781 17.460937 17.050781 22.648437 21.21875 4.476563 3.589843 4.699219 11.820312 4.277344 20.175781-.027344.53125-.070313 1.441406-.160156 1.949219-1.007813.535156-3.738281.921875-4.820313 1.074219-3.875.550781-7.773437 1.292968-11.59375 2.21875-4.023437.972656-6.5 5.023437-5.527344 9.050781.96875 4.011719 5.007813 6.503906 9.050782 5.527343 3.351562-.808593 6.777344-1.464843 10.175781-1.945312 11.347656-1.605469 17.277344-5.671875 17.859375-17.117188.386719-7.707031 1.195312-23.746093-9.871094-32.632812-8.40625-6.75-14.539062-3.6875-17.707031-13.941406-.804687-2.601563-1.003906-5.015625-.917969-6.859375 7.839844 2.339843 25.042969 10.972656 39.003906 19.144531 4.988282 2.921875 11.289063-.679688 11.289063-6.46875l.007813-271.015625c.003906-4.140625-3.355469-7.5-7.496094-7.5zm0 0"/><path d="m426.9375 412.757812c-11.066406 6.214844-14.984375 10.6875-18.125 10.6875h-.019531c-5.730469-.046874-9.492188-8.585937-38.886719.800782-3.289062 1.050781-16.707031 5.523437-21.050781 3.390625-1.828125-.898438-9.296875-10.28125-10.734375-15.492188-.742188-2.6875-.296875-5.589843 1.039062-6.757812 3.644532-3.191407 8.515625-1.390625 16.765625-15.054688 1.179688-1.949219 2.289063-3.789062 3.503907-5.105469 3.980468-4.3125 11.355468-5.582031 19.207031-6.601562 5.636719-.730469 10.171875-1.183594 14.175781-1.578125 9.414062-.9375 16.21875-1.609375 27.699219-4.855469 6.503906-1.839844 10.839843-6.46875 12.207031-13.039062 1.398438-6.707032-.730469-16.15625-4.292969-19.074219-10.71875-8.765625-20.816406-5.03125-26.851562-2.800781-1.242188.460937-3.109375 1.152344-3.753907 1.195312-.515624-1.125-.703124-1.832031-.769531-2.207031 2.394531-1.695313 19.585938-10.234375 22.394531-26.125 1.53125-8.679687-1.855468-20.15625-11.550781-20.828125-7.855469-.539062-17.722656 6.238281-21.847656 9.898438-4.710937 4.1875-8.390625 8.878906-12.371094 12.589843-3.039062-2.621093-6.9375-4.070312-11.039062-3.976562-9.484375.210937-11.964844 6.785156-13.023438 9.589843-.007812.019532-.015625.035157-.019531.054688-2.296875-.886719-7.867188-2.863281-12.65625 1.917969-5.746094 5.734375-5.820312 11.207031-11.171875 41.292969-1.125 3.800781-12.589844 15.226562-17.136719 17.765624-3.867187-.011718-9.953125-.085937-12.757812.039063-12.3125.535156-16.4375 9.804687-13.101563 16.578125l7.101563 14.417969c-.066406.003906-.132813.003906-.199219.003906-2.960937.035156-5.835937.632813-8.554687 1.777344-.019532-.164063-.039063-.320313-.058594-.464844-2.078125-15.917969-11.285156-13.289063-13.558594-20.785156-.460938-1.511719-.210938-3.886719.050781-6.398438.496094-4.738281 1.109375-10.628906-2.4375-16.140625-2.457031-3.820312-6.066406-5.9375-8.699219-7.484375l-40.660156-23.867187c-10.71875-6.289063-23.761718 3.175781-21.171875 15.316406.902344 4.230469 2.890625 8.71875 5.59375 12.636719 2.832031 4.105469 4.917969 10.367187 7.128907 16.996093 10.765624 32.304688 19.558593 28.800782 24.09375 35.328126-18.949219 5.789062-12.46875 18.082031-27.097657 21.507812-2.902343.679688-4.886719.773438-5.808593.328125-.960938-.542969-2.835938-2.125-4.660157-3.882813 5.71875-2.863281 10.027344-7.183593 14.445313-9.957031 2.175781-1.367187 3.5-3.75 3.511718-6.320312.066407-14.84375-3.851562-20.453125-8.382812-26.945313-11.699219-16.753906-13.445312-33.417968-23.148438-46.90625-4.980468-6.921875-14.355468-9.503906-22.292968-6.136718-8.699219 3.6875-18.1875 5.074218-27.429688 4.011718-7.199218-.824218-19.246094-2.207031-24.691406 7.8125-1.878906 3.457032-1.972656 6.953125-2.464844 8.769532-3.4375 1.105468-20.992187-1.429688-33.308594 19.621093-2.609374 4.460938-4.667968 9.492188-6.484374 15.835938-1.214844 4.253906-5.433594 2.113281-14.535157.449219-4.734375-.863282-9.210937-1.683594-13.515625-2.921876-8.59375-2.472656-18.417968-8.164062-20.207031-16.730468-1.03125-4.941406.617187-10.96875 2.070313-16.285156l8.707031-31.867188c.492187-1.8125 2.457031-2.78125 4.183593-2.066406l22.757813 9.449218c7.0625 2.933594 23.601563 9.800782 35.765625.121094 6.6875-5.320312 13.019531-16.40625 5.226562-39.007812-3.191406-9.25-5.960937-18.714844-1.964843-24.050782 1.351562-1.152343 5.992187-1.273437 13.800781-.359374 4.117188.484374 7.839844-2.460938 8.320312-6.578126.480469-4.113281-2.460937-7.839843-6.578124-8.320312-9.988282-1.171875-20.28125-1.734375-26.6875 5.195312-.109376.121094-.214844.246094-.320313.371094-9.871094 12.195313-4.164063 28.742188-.753906 38.632813 1.796875 5.207031 5.355469 17.816406-.382813 22.378906-4.644531 3.695313-13.488281.746094-20.675781-2.234375l-22.757813-9.449219c-10.066406-4.175781-21.527343 1.4375-24.40625 11.96875l-8.707031 31.863281c-1.804687 6.605469-4.050781 14.832032-2.28125 23.304688 2.679688 12.820312 14.171875 23.316406 30.746094 28.082031 8.339844 2.398438 16.699219 3.351563 24.449219 5.148438 9.707031 2.246093 19.441406-3.445313 22.167968-12.964844 1.457032-5.105469 3.050782-9.039063 5.011719-12.386719 10.832031-18.515625 23.871094-6.648437 32.386719-18.085937 3.191406-4.289063 2.976562-9.351563 3.601562-10.707031 1.308594-1.058594 7.492188-.351563 9.816407-.082032 11.816406 1.355469 23.917969-.410156 35-5.109375 1.542969-.652343 3.335937-.195312 4.261719 1.089844 8.171874 11.359375 9.949218 28.003906 23.023437 46.730469 3.378906 4.84375 5.179687 7.421875 5.589844 14.453125-5.574219 4.117187-9.761719 8.148437-13.882813 7.777343-5.488281-.480468-9.707031 4.875-8.03125 11.101563 1.925782 7.140625 13.054688 16.679687 17.046875 18.625 5.074219 2.476563 10.417969 2.121094 15.890625.839844 14.695313-3.441407 21.210938-15.742188 23.359375-19.796875.613281-.371094 1.6875-.863282 2.839844-1.3125 3.816406.6875 7.851563-.757813 10.265625-4.136719 3.464844-4.855469 3.765625-11.867187.75-17.449219-2.816406-5.210937-7.308594-8.238281-11.976562-11.410156-5.269532-3.609375-8.398438-12.996094-11.421876-22.078125-2.445312-7.328125-4.96875-14.910156-9.011718-20.769531-1.199219-1.734375-2.195313-3.730469-2.816406-5.589844l39.113281 22.957031c4.367187 2.566407 4.515625 2.371094 3.8125 9.132813-.386719 3.703125-.828125 7.902344.511719 12.308594 2.207031 7.28125 8.023437 11.296874 12.472656 15.265624.96875 2.457032.082031 10.289063 5.960937 14.753907 2.890625 2.195312 9.425781 3.300781 15.253907.75 3.289062-1.4375 11.769531.371093 17.066406-6.296875 3.378906-4.257813 3.246094-10.089844.050781-14.714844l-5.269531-10.695312c3.214844-.035157 7.875.023437 11.136718.023437 1.683594 0 6.160157 0 17.800782-11.316406 7.675781-7.464844 12.015625-13.773438 12.902344-18.757813 5.25-29.519531 5.089843-29.105468 5.796874-31.152344 2.363282.722657 5.777344 1.269532 9.523438-.425781 5.097656-2.304687 6.804688-6.453125 7.710938-8.84375.234374.117188.449218.296875.613281.53125 3.277343 4.746094 7.589843 5.144531 9.867187 4.953125 2.09375-.167968 4.121094-.957031 5.875-2.28125 6.53125-4.949218 10.984375-11.183594 16.101563-15.730468 2.746093-2.4375 6.320312-4.5 8.738281-5.5.105469.816406.105469 1.835937-.160156 3.027343-1.109375 5.003907-6.261719 10.328125-14.503906 14.992188-3.875 2.195312-12.183594 8.769531-5.605469 22.40625 2.375 4.925781 7.390625 8.039062 13.09375 8.121093 3.304687.042969 6.308593-1.058593 9.203125-2.125 4.824218-1.785156 7.570312-2.636718 10.832031-.613281.511719 1.820313.863281 4.65625.195313 6.097657-.121094.261718-.285157.617187-1.375.925781-10.199219 2.882812-16.128907 3.472656-25.097657 4.359375-4.109375.410156-8.765625.871094-14.625 1.632812-8.085937 1.050782-20.296875 2.632813-28.296875 11.300782-2.25 2.4375-3.882812 5.140624-5.324218 7.527343-6.222657 10.308594-6.371094 5.011719-13.808594 11.527344-5.722656 5.007813-7.929688 13.65625-5.617188 22.03125 2.164063 7.828125 11.496094 21.480469 18.578125 24.964844 9.355469 4.59375 22.332031.597656 32.230469-2.566407 26.222656-8.371093 21.398438-.191406 34.203125-.085937h.148437c9.246094 0 13.527344-5.910156 25.460938-12.613281 3.613281-2.027344 4.894531-6.597656 2.867188-10.210938-2.027344-3.617187-6.597657-4.898437-10.210938-2.871094zm0 0"/><path d="m504.449219.5c-16.636719.105469-49.414063.253906-54.382813.042969-13.179687-.5546878-26.242187 4.308593-35.84375 13.363281l-44.253906 41.738281c-2.902344 2.738281-7.761719 7.320313-8.285156 14.183594-.632813 8.3125 5.027344 11.460937.902344 16.003906-7.40625 8.160157-23.003907-.277343-19.585938-4.066406 3.101562-3.433594 5.679688-7.300781 7.667969-11.492187 4.480469-9.433594-.371094-20.734376-10.335938-24.042969-29.910156-9.9375-45.457031-16.664063-62.316406-13.125-21.601563 4.535156-34.363281 24.109375-44.863281 43.035156-20.992188 37.820313-26.527344 31.023437-40.964844 41.261719-3.480469 2.46875-26.289062 26.550781-20.511719 40.265625 3.015625 7.167969 9.917969 12.003906 18.015625 12.621093 6.738282.519532 12.554688-1.28125 17.601563-4.011718-.453125 12.675781.445312 28.191406 6.464843 35.847656 5.078126 6.457031 13.894532 8.160156 22.710938.554688 10.675781-9.210938 22.070312-33.421876 22.464844-44.097657.339844-9.191406-4.53125-13.546875-7.148438-15.886719-.183594-.164062-.398437-.355468-.59375-.539062.820313-6.117188 3.351563-9.210938 7.429688-23.515625 2.589844-9.070313 4.824218-16.90625 11.769531-21.25 2.738281-1.714844 6.140625-1.570313 8.273437.347656.726563.660157 2.664063 2.40625.027344 8.164063-2.875 6.28125-8.476562 12.078125-11.886718 20.074218-4.324219 10.136719-3.1875 24.160157 7.433593 30.183594 16.363281 9.277344 30.089844-9.34375 40.542969-7.808594-1.855469 8.988282-4.292969 18.5-9.652344 25.53125-6.40625 8.402344-16.089844 10.578126-21.757812 7.824219-1.382813-.671875-2.945313-.902343-4.464844-.65625-6.746094 1.082031-13.914062 7.355469-14.71875 18.925781-.386719 5.511719.652344 10.941407-.21875 14.65625-2.445312 10.421876-20.0625 12.679688-30.347656 13.097657l-29.792969 1.214843c-.121094-6.519531 4.691406-21.054687-3.734375-29.042968-7.84375-7.441406-27.050781-5.816406-31.394531 5.203125-1.554688 3.949219-1.28125 8.269531-1.015625 12.449219.519531 8.226562.558594 7.574218-5.183594 11.328124-19.078125 12.472657-16.84375 20.304688-21.726562 24.746094-1.121094 1.019532-2.960938 1.742188-4.4375 2.257813-3.910157 1.359375-5.976563 5.636719-4.613282 9.550781 1.363282 3.902344 5.632813 5.976562 9.550782 4.609375 2.824218-.980469 6.464843-2.476563 9.59375-5.320313 8.675781-7.890624 3.820312-12.8125 19.84375-23.289062 17.589843-11.496094 10.628906-20.757812 11.832031-30.304688 1.574219-.828124 5.328125-1.050781 7-.402343 1.757812 3.445312-.890625 11.539062-.707031 18.707031.246093 9.476562 5.167968 14.925781 15.523437 14.5l29.875-1.21875c32.167969-1.308594 41.863281-14.132812 44.335937-24.65625 1.550782-6.589844.238282-12.136719.578126-17.042969.140624-1.996093.78125-3.507812 1.347656-4.367187 13.246094 4.101562 28.121094-2.601563 36.5625-13.675782 8.339844-10.941406 11.09375-24.851562 13.304687-36.03125 1.078125-5.457031-5.363281-14.058593-17.535156-13.628906-14.632813.523438-25.214844 13.183594-31.191406 9.796875-2.457031-1.394531-2.949219-6.757812-1.03125-11.253906 2.625-6.152344 8.195312-12.007813 11.726562-19.714844 4.589844-10.023437 3.265625-19.335937-3.625-25.546875-7.078125-6.378906-17.878906-7.167968-26.269531-1.925781-11.835938 7.402344-15.238281 19.332031-18.238281 29.855469-4.027344 14.117187-7.308594 18.433594-8.054688 27.285156-.875 10.355469 7.984375 11.136719 7.796875 16.214844-.273437 7.460937-11.53125 30.171875-18.738281 34.402344-2.527344-3.808594-4.429687-19.480469-1.636719-41.183594.882813-6.855469-7.25-11.15625-12.417968-6.5625-7.410157 6.578125-13.199219 11.1875-20.3125 10.648437-2.246094-.171875-4.207032-1.351562-5.132813-3.058593.378906-4.964844 11.351563-19.75 15.164063-22.640626 12.609374-8.941406 22.042968-4.132812 45.398437-46.214843 8.054687-14.511719 18.5625-32.21875 34.828125-35.632813 12.40625-2.601562 25.636719 3.085938 54.507812 12.675782 1.390626.460937 2.144532 2.054687 1.515626 3.378906-3.964844 8.351562-10.855469 11.011718-9.542969 21.535156 2.03125 16.253906 30.785156 27.433594 46.117187 10.535156 10.4375-11.5 2.769532-22.578125 2.949219-24.9375.082031-1.078125 2.746094-3.589844 3.621094-4.417968l44.253906-41.742188c6.671875-6.292969 15.742187-9.675781 24.90625-9.285156 5.050781.21875 33.652344.089844 47.574219.015625v35.757812c0 4.144531 3.355468 7.5 7.5 7.5 4.140625 0 7.5-3.355469 7.5-7.496093v-43.304688c0-4.003906-3.121094-7.417969-7.546875-7.5zm0 0"/></svg>